<svg width="1200" height="800" viewBox="0 0 1200 800" fill="none" xmlns="http://www.w3.org/2000/svg">
  <defs>
    <linearGradient id="bg" x1="120" y1="90" x2="1080" y2="720" gradientUnits="userSpaceOnUse">
      <stop stop-color="#0F172A"/>
      <stop offset="0.5" stop-color="#111827"/>
      <stop offset="1" stop-color="#0B1020"/>
    </linearGradient>
    <linearGradient id="accent" x1="240" y1="180" x2="960" y2="620" gradientUnits="userSpaceOnUse">
      <stop stop-color="#38BDF8"/>
      <stop offset="1" stop-color="#22C55E"/>
    </linearGradient>
    <filter id="blur" x="0" y="0" width="1200" height="800" filterUnits="userSpaceOnUse" color-interpolation-filters="sRGB">
      <feGaussianBlur stdDeviation="42"/>
    </filter>
  </defs>

  <rect width="1200" height="800" rx="56" fill="url(#bg)"/>
  <circle cx="930" cy="190" r="140" fill="#38BDF8" fill-opacity="0.16" filter="url(#blur)"/>
  <circle cx="260" cy="620" r="180" fill="#22C55E" fill-opacity="0.14" filter="url(#blur)"/>

  <rect x="110" y="120" width="980" height="560" rx="40" fill="#0F172A" fill-opacity="0.72" stroke="#334155" stroke-opacity="0.7"/>

  <rect x="180" y="190" width="840" height="96" rx="28" fill="white" fill-opacity="0.05" stroke="#64748B" stroke-opacity="0.35"/>
  <circle cx="235" cy="238" r="18" fill="url(#accent)"/>
  <rect x="275" y="217" width="238" height="20" rx="10" fill="#E2E8F0" fill-opacity="0.9"/>
  <rect x="275" y="247" width="174" height="14" rx="7" fill="#94A3B8" fill-opacity="0.8"/>

  <rect x="180" y="314" width="260" height="244" rx="28" fill="white" fill-opacity="0.05" stroke="#64748B" stroke-opacity="0.35"/>
  <rect x="472" y="314" width="258" height="244" rx="28" fill="white" fill-opacity="0.05" stroke="#64748B" stroke-opacity="0.35"/>
  <rect x="760" y="314" width="260" height="244" rx="28" fill="white" fill-opacity="0.05" stroke="#64748B" stroke-opacity="0.35"/>

  <path d="M224 383L286 365L332 399L377 351" stroke="url(#accent)" stroke-width="10" stroke-linecap="round" stroke-linejoin="round"/>
  <circle cx="224" cy="383" r="10" fill="#38BDF8"/>
  <circle cx="286" cy="365" r="10" fill="#38BDF8"/>
  <circle cx="332" cy="399" r="10" fill="#22C55E"/>
  <circle cx="377" cy="351" r="10" fill="#22C55E"/>

  <rect x="512" y="358" width="178" height="18" rx="9" fill="#E2E8F0" fill-opacity="0.9"/>
  <rect x="512" y="395" width="140" height="12" rx="6" fill="#94A3B8" fill-opacity="0.8"/>
  <rect x="512" y="428" width="204" height="12" rx="6" fill="#94A3B8" fill-opacity="0.6"/>
  <rect x="512" y="460" width="164" height="12" rx="6" fill="#94A3B8" fill-opacity="0.6"/>
  <rect x="512" y="500" width="120" height="34" rx="17" fill="url(#accent)" fill-opacity="0.95"/>

  <rect x="800" y="356" width="148" height="148" rx="36" fill="url(#accent)" fill-opacity="0.18" stroke="url(#accent)" stroke-opacity="0.45"/>
  <path d="M838 430H910M874 394V466" stroke="#E2E8F0" stroke-width="14" stroke-linecap="round"/>
  <text x="600" y="602" text-anchor="middle" fill="#E2E8F0" fill-opacity="0.95" font-family="Arial, Helvetica, sans-serif" font-size="44" font-weight="700">Startup Navigator</text>
  <text x="600" y="648" text-anchor="middle" fill="#94A3B8" fill-opacity="0.95" font-family="Arial, Helvetica, sans-serif" font-size="22">Discover, validate, and launch faster</text>
</svg>